M48
; DRILL file {KiCad (6.0.9)} date Sat 05 Nov 2022 06:14:29 PM CET
; FORMAT={-:-/ absolute / inch / decimal}
; #@! TF.CreationDate,2022-11-05T18:14:29+01:00
; #@! TF.GenerationSoftware,Kicad,Pcbnew,(6.0.9)
; #@! TF.FileFunction,Plated,1,2,PTH
FMAT,2
INCH
; #@! TA.AperFunction,Plated,PTH,ViaDrill
T1C0.0157
; #@! TA.AperFunction,Plated,PTH,ComponentDrill
T2C0.0236
; #@! TA.AperFunction,Plated,PTH,ComponentDrill
T3C0.0394
; #@! TA.AperFunction,Plated,PTH,ComponentDrill
T4C0.0413
%
G90
G05
T1
X3.97Y-3.83
X4.41Y-3.97
X4.75Y-3.83
X5.18Y-3.96
X5.52Y-3.83
X5.95Y-3.97
X6.29Y-3.83
X6.4Y-3.82
X6.4202Y-3.9598
X6.47Y-4.3
X6.53Y-3.9
X6.57Y-4.17
X6.66Y-3.78
X6.66Y-3.85
X6.72Y-3.97
X6.79Y-4.17
X6.83Y-4.2
X6.86Y-4.24
X7.2Y-3.96
X7.24Y-3.84
X7.6Y-3.72
T3
X5.48Y-4.07
X5.58Y-4.07
X5.68Y-4.07
X5.78Y-4.07
X5.88Y-4.07
X5.98Y-4.07
T4
X7.3815Y-3.7366
X7.3815Y-4.0634
X7.6Y-3.6303
X7.8185Y-3.7366
X7.8343Y-4.0358
T2
G00X6.3299Y-3.5505
M15
G01X6.3299Y-3.5269
M16
G05
G00X6.3299Y-3.7249
M15
G01X6.3299Y-3.6816
M16
G05
G00X6.6701Y-3.5505
M15
G01X6.6701Y-3.5269
M16
G05
G00X6.6701Y-3.7249
M15
G01X6.6701Y-3.6816
M16
G05
T0
M30
