%TF.GenerationSoftware,KiCad,Pcbnew,(6.0.9)*%
%TF.CreationDate,2022-11-05T18:14:27+01:00*%
%TF.ProjectId,pcb,7063622e-6b69-4636-9164-5f7063625858,rev?*%
%TF.SameCoordinates,Original*%
%TF.FileFunction,Copper,L1,Top*%
%TF.FilePolarity,Positive*%
%FSLAX46Y46*%
G04 Gerber Fmt 4.6, Leading zero omitted, Abs format (unit mm)*
G04 Created by KiCad (PCBNEW (6.0.9)) date 2022-11-05 18:14:27*
%MOMM*%
%LPD*%
G01*
G04 APERTURE LIST*
G04 Aperture macros list*
%AMRoundRect*
0 Rectangle with rounded corners*
0 $1 Rounding radius*
0 $2 $3 $4 $5 $6 $7 $8 $9 X,Y pos of 4 corners*
0 Add a 4 corners polygon primitive as box body*
4,1,4,$2,$3,$4,$5,$6,$7,$8,$9,$2,$3,0*
0 Add four circle primitives for the rounded corners*
1,1,$1+$1,$2,$3*
1,1,$1+$1,$4,$5*
1,1,$1+$1,$6,$7*
1,1,$1+$1,$8,$9*
0 Add four rect primitives between the rounded corners*
20,1,$1+$1,$2,$3,$4,$5,0*
20,1,$1+$1,$4,$5,$6,$7,0*
20,1,$1+$1,$6,$7,$8,$9,0*
20,1,$1+$1,$8,$9,$2,$3,0*%
G04 Aperture macros list end*
%TA.AperFunction,ComponentPad*%
%ADD10R,1.700000X1.700000*%
%TD*%
%TA.AperFunction,ComponentPad*%
%ADD11O,1.700000X1.700000*%
%TD*%
%TA.AperFunction,ComponentPad*%
%ADD12C,1.750000*%
%TD*%
%TA.AperFunction,SMDPad,CuDef*%
%ADD13R,0.600000X1.450000*%
%TD*%
%TA.AperFunction,SMDPad,CuDef*%
%ADD14R,0.300000X1.450000*%
%TD*%
%TA.AperFunction,ComponentPad*%
%ADD15O,1.000000X1.600000*%
%TD*%
%TA.AperFunction,ComponentPad*%
%ADD16O,1.000000X2.100000*%
%TD*%
%TA.AperFunction,SMDPad,CuDef*%
%ADD17RoundRect,0.237500X-0.237500X0.300000X-0.237500X-0.300000X0.237500X-0.300000X0.237500X0.300000X0*%
%TD*%
%TA.AperFunction,SMDPad,CuDef*%
%ADD18RoundRect,0.250000X-0.412500X-1.100000X0.412500X-1.100000X0.412500X1.100000X-0.412500X1.100000X0*%
%TD*%
%TA.AperFunction,SMDPad,CuDef*%
%ADD19R,1.500000X0.900000*%
%TD*%
%TA.AperFunction,SMDPad,CuDef*%
%ADD20RoundRect,0.237500X0.250000X0.237500X-0.250000X0.237500X-0.250000X-0.237500X0.250000X-0.237500X0*%
%TD*%
%TA.AperFunction,SMDPad,CuDef*%
%ADD21R,1.700000X0.650000*%
%TD*%
%TA.AperFunction,SMDPad,CuDef*%
%ADD22RoundRect,0.237500X-0.237500X0.250000X-0.237500X-0.250000X0.237500X-0.250000X0.237500X0.250000X0*%
%TD*%
%TA.AperFunction,SMDPad,CuDef*%
%ADD23RoundRect,0.237500X-0.250000X-0.237500X0.250000X-0.237500X0.250000X0.237500X-0.250000X0.237500X0*%
%TD*%
%TA.AperFunction,ViaPad*%
%ADD24C,0.800000*%
%TD*%
%TA.AperFunction,Conductor*%
%ADD25C,0.250000*%
%TD*%
%TA.AperFunction,Conductor*%
%ADD26C,0.150000*%
%TD*%
G04 APERTURE END LIST*
D10*
%TO.P,J2,1,Pin_1*%
%TO.N,/PB0*%
X151892000Y-103378000D03*
D11*
%TO.P,J2,2,Pin_2*%
%TO.N,/PB1*%
X149352000Y-103378000D03*
%TO.P,J2,3,Pin_3*%
%TO.N,/PB2*%
X146812000Y-103378000D03*
%TO.P,J2,4,Pin_4*%
%TO.N,/PB5*%
X144272000Y-103378000D03*
%TO.P,J2,5,Pin_5*%
%TO.N,GND*%
X141732000Y-103378000D03*
%TO.P,J2,6,Pin_6*%
%TO.N,+5V*%
X139192000Y-103378000D03*
%TD*%
D12*
%TO.P,SW1,A,A*%
%TO.N,/PB3*%
X187490000Y-94910000D03*
%TO.P,SW1,B,B*%
%TO.N,/PB4*%
X198590000Y-94910000D03*
%TO.P,SW1,C,C*%
%TO.N,GND*%
X193040000Y-92210000D03*
%TO.P,SW1,S1,S1*%
%TO.N,/PB2*%
X198990000Y-102510000D03*
%TO.P,SW1,S2,S2*%
%TO.N,GND*%
X187490000Y-103210000D03*
%TD*%
D13*
%TO.P,J1,A1,GND*%
%TO.N,GND*%
X168350000Y-94977000D03*
%TO.P,J1,A4,VBUS*%
%TO.N,+5V*%
X167550000Y-94977000D03*
D14*
%TO.P,J1,A5,CC1*%
%TO.N,Net-(J1-PadA5)*%
X166350000Y-94977000D03*
%TO.P,J1,A6,D+*%
%TO.N,unconnected-(J1-PadA6)*%
X165350000Y-94977000D03*
%TO.P,J1,A7,D-*%
%TO.N,unconnected-(J1-PadA7)*%
X164850000Y-94977000D03*
%TO.P,J1,A8,SBU1*%
%TO.N,unconnected-(J1-PadA8)*%
X163850000Y-94977000D03*
D13*
%TO.P,J1,A9,VBUS*%
%TO.N,+5V*%
X162650000Y-94977000D03*
%TO.P,J1,A12,GND*%
%TO.N,GND*%
X161850000Y-94977000D03*
%TO.P,J1,B1,GND*%
X161850000Y-94977000D03*
%TO.P,J1,B4,VBUS*%
%TO.N,+5V*%
X162650000Y-94977000D03*
D14*
%TO.P,J1,B5,CC2*%
%TO.N,Net-(J1-PadB5)*%
X163350000Y-94977000D03*
%TO.P,J1,B6,D+*%
%TO.N,unconnected-(J1-PadB6)*%
X164350000Y-94977000D03*
%TO.P,J1,B7,D-*%
%TO.N,unconnected-(J1-PadB7)*%
X165850000Y-94977000D03*
%TO.P,J1,B8,SBU2*%
%TO.N,unconnected-(J1-PadB8)*%
X166850000Y-94977000D03*
D13*
%TO.P,J1,B9,VBUS*%
%TO.N,+5V*%
X167550000Y-94977000D03*
%TO.P,J1,B12,GND*%
%TO.N,GND*%
X168350000Y-94977000D03*
D15*
%TO.P,J1,S1,SHIELD*%
X169420000Y-89882000D03*
D16*
X169420000Y-94062000D03*
X160780000Y-94062000D03*
D15*
X160780000Y-89882000D03*
%TD*%
D17*
%TO.P,C6,1*%
%TO.N,+5V*%
X101346000Y-98705500D03*
%TO.P,C6,2*%
%TO.N,GND*%
X101346000Y-100430500D03*
%TD*%
%TO.P,C5,1*%
%TO.N,+5V*%
X120904000Y-98605000D03*
%TO.P,C5,2*%
%TO.N,GND*%
X120904000Y-100330000D03*
%TD*%
%TO.P,C4,1*%
%TO.N,+5V*%
X140716000Y-98605000D03*
%TO.P,C4,2*%
%TO.N,GND*%
X140716000Y-100330000D03*
%TD*%
%TO.P,C3,1*%
%TO.N,+5V*%
X160274000Y-98605000D03*
%TO.P,C3,2*%
%TO.N,GND*%
X160274000Y-100330000D03*
%TD*%
%TO.P,C2,1*%
%TO.N,+5V*%
X170942000Y-97536000D03*
%TO.P,C2,2*%
%TO.N,GND*%
X170942000Y-99261000D03*
%TD*%
D18*
%TO.P,C1,1*%
%TO.N,+5V*%
X164299500Y-99060000D03*
%TO.P,C1,2*%
%TO.N,GND*%
X167424500Y-99060000D03*
%TD*%
D19*
%TO.P,D4,1,VDD*%
%TO.N,+5V*%
X113755000Y-97410000D03*
%TO.P,D4,2,DOUT*%
%TO.N,Net-(D4-Pad2)*%
X113755000Y-100710000D03*
%TO.P,D4,3,VSS*%
%TO.N,GND*%
X118655000Y-100710000D03*
%TO.P,D4,4,DIN*%
%TO.N,Net-(D3-Pad2)*%
X118655000Y-97410000D03*
%TD*%
D20*
%TO.P,R5,1*%
%TO.N,/PB2*%
X183792500Y-103378000D03*
%TO.P,R5,2*%
%TO.N,+5V*%
X181967500Y-103378000D03*
%TD*%
D21*
%TO.P,U1,1,~{RESET}/PB5*%
%TO.N,/PB5*%
X169766000Y-109601000D03*
%TO.P,U1,2,XTAL1/PB3*%
%TO.N,/PB3*%
X169766000Y-108331000D03*
%TO.P,U1,3,XTAL2/PB4*%
%TO.N,/PB4*%
X169766000Y-107061000D03*
%TO.P,U1,4,GND*%
%TO.N,GND*%
X169766000Y-105791000D03*
%TO.P,U1,5,AREF/PB0*%
%TO.N,/PB0*%
X162466000Y-105791000D03*
%TO.P,U1,6,PB1*%
%TO.N,/PB1*%
X162466000Y-107061000D03*
%TO.P,U1,7,PB2*%
%TO.N,/PB2*%
X162466000Y-108331000D03*
%TO.P,U1,8,VCC*%
%TO.N,+5V*%
X162466000Y-109601000D03*
%TD*%
D19*
%TO.P,D3,1,VDD*%
%TO.N,+5V*%
X133440000Y-97410000D03*
%TO.P,D3,2,DOUT*%
%TO.N,Net-(D3-Pad2)*%
X133440000Y-100710000D03*
%TO.P,D3,3,VSS*%
%TO.N,GND*%
X138340000Y-100710000D03*
%TO.P,D3,4,DIN*%
%TO.N,Net-(D2-Pad2)*%
X138340000Y-97410000D03*
%TD*%
D22*
%TO.P,R2,1*%
%TO.N,Net-(J1-PadA5)*%
X157988000Y-88138000D03*
%TO.P,R2,2*%
%TO.N,GND*%
X157988000Y-89963000D03*
%TD*%
D19*
%TO.P,D2,1,VDD*%
%TO.N,+5V*%
X153125000Y-97410000D03*
%TO.P,D2,2,DOUT*%
%TO.N,Net-(D2-Pad2)*%
X153125000Y-100710000D03*
%TO.P,D2,3,VSS*%
%TO.N,GND*%
X158025000Y-100710000D03*
%TO.P,D2,4,DIN*%
%TO.N,Net-(D1-Pad2)*%
X158025000Y-97410000D03*
%TD*%
%TO.P,D1,1,VDD*%
%TO.N,+5V*%
X172810000Y-97410000D03*
%TO.P,D1,2,DOUT*%
%TO.N,Net-(D1-Pad2)*%
X172810000Y-100710000D03*
%TO.P,D1,3,VSS*%
%TO.N,GND*%
X177710000Y-100710000D03*
%TO.P,D1,4,DIN*%
%TO.N,Net-(D1-Pad4)*%
X177710000Y-97410000D03*
%TD*%
D20*
%TO.P,R4,1*%
%TO.N,/PB4*%
X183792500Y-99060000D03*
%TO.P,R4,2*%
%TO.N,+5V*%
X181967500Y-99060000D03*
%TD*%
%TO.P,R3,1*%
%TO.N,/PB3*%
X183792500Y-94742000D03*
%TO.P,R3,2*%
%TO.N,+5V*%
X181967500Y-94742000D03*
%TD*%
D23*
%TO.P,R6,1*%
%TO.N,/PB0*%
X175871500Y-105918000D03*
%TO.P,R6,2*%
%TO.N,Net-(D1-Pad4)*%
X177696500Y-105918000D03*
%TD*%
D22*
%TO.P,R1,2*%
%TO.N,GND*%
X157988000Y-93726000D03*
%TO.P,R1,1*%
%TO.N,Net-(J1-PadB5)*%
X157988000Y-91901000D03*
%TD*%
D19*
%TO.P,D5,1,VDD*%
%TO.N,+5V*%
X94070000Y-97410000D03*
%TO.P,D5,2,DOUT*%
%TO.N,unconnected-(D5-Pad2)*%
X94070000Y-100710000D03*
%TO.P,D5,3,VSS*%
%TO.N,GND*%
X98970000Y-100710000D03*
%TO.P,D5,4,DIN*%
%TO.N,Net-(D4-Pad2)*%
X98970000Y-97410000D03*
%TD*%
D24*
%TO.N,GND*%
X169164000Y-96012000D03*
X169164000Y-97790000D03*
X193040000Y-94488000D03*
%TO.N,+5V*%
X163072299Y-100579701D03*
X164338000Y-109220000D03*
%TO.N,GND*%
X162560000Y-97028000D03*
X165862000Y-99060000D03*
%TO.N,Net-(D1-Pad2)*%
X159766000Y-97282000D03*
X170688000Y-100838000D03*
%TO.N,Net-(D2-Pad2)*%
X140208000Y-97282000D03*
X151130000Y-100838000D03*
%TO.N,Net-(D3-Pad2)*%
X131572000Y-100584000D03*
X120650000Y-97282000D03*
%TO.N,Net-(D4-Pad2)*%
X112014000Y-100838000D03*
X100838000Y-97282000D03*
%TO.N,/PB0*%
X166878000Y-105918000D03*
X172466000Y-105918000D03*
%TO.N,/PB3*%
X183896000Y-97536000D03*
X174244000Y-107696000D03*
%TO.N,/PB4*%
X182880000Y-100584000D03*
X173482000Y-106680000D03*
%TD*%
D25*
%TO.N,GND*%
X167424500Y-99060000D02*
X167894000Y-99060000D01*
X169164000Y-95791000D02*
X168350000Y-94977000D01*
X167894000Y-99060000D02*
X169164000Y-97790000D01*
X169164000Y-96012000D02*
X169164000Y-95791000D01*
%TO.N,+5V*%
X168402000Y-96774000D02*
X170053000Y-96774000D01*
X165100000Y-96774000D02*
X168402000Y-96774000D01*
X168402000Y-96774000D02*
X167550000Y-95922000D01*
X167550000Y-95922000D02*
X167550000Y-94977000D01*
%TO.N,GND*%
X169420000Y-94062000D02*
X169265000Y-94062000D01*
X169265000Y-94062000D02*
X168350000Y-94977000D01*
X171712000Y-92210000D02*
X171696000Y-92210000D01*
X193040000Y-92210000D02*
X171712000Y-92210000D01*
X171712000Y-92210000D02*
X169420000Y-89918000D01*
X169420000Y-89918000D02*
X169420000Y-89882000D01*
X171696000Y-92210000D02*
X169844000Y-94062000D01*
X169844000Y-94062000D02*
X169420000Y-94062000D01*
X161850000Y-94977000D02*
X161695000Y-94977000D01*
X161695000Y-94977000D02*
X160780000Y-94062000D01*
D26*
X157988000Y-93726000D02*
X158324000Y-94062000D01*
X158324000Y-94062000D02*
X160780000Y-94062000D01*
X157988000Y-89963000D02*
X156972000Y-90979000D01*
X156972000Y-90979000D02*
X156972000Y-92710000D01*
X156972000Y-92710000D02*
X157988000Y-93726000D01*
X157988000Y-89963000D02*
X158069000Y-89882000D01*
X158069000Y-89882000D02*
X160780000Y-89882000D01*
%TO.N,Net-(J1-PadB5)*%
X157988000Y-91901000D02*
X161498241Y-91901000D01*
X161498241Y-91901000D02*
X163350000Y-93752759D01*
X163350000Y-93752759D02*
X163350000Y-94977000D01*
%TO.N,Net-(J1-PadA5)*%
X157988000Y-88138000D02*
X161117000Y-88138000D01*
X161117000Y-88138000D02*
X166350000Y-93371000D01*
X166350000Y-93371000D02*
X166350000Y-94977000D01*
D25*
%TO.N,+5V*%
X164338000Y-97536000D02*
X165100000Y-96774000D01*
X164338000Y-97536000D02*
X164338000Y-99021500D01*
X164338000Y-97536000D02*
X162650000Y-95848000D01*
X162650000Y-95848000D02*
X162650000Y-94977000D01*
%TO.N,GND*%
X162560000Y-97028000D02*
X161850000Y-96318000D01*
X161850000Y-96318000D02*
X161850000Y-94977000D01*
%TO.N,+5V*%
X162466000Y-109601000D02*
X146177000Y-109601000D01*
X146177000Y-109601000D02*
X145415000Y-109601000D01*
X145415000Y-109601000D02*
X139192000Y-103378000D01*
%TO.N,/PB0*%
X162466000Y-105791000D02*
X158369000Y-105791000D01*
X158369000Y-105791000D02*
X155956000Y-103378000D01*
X155956000Y-103378000D02*
X151892000Y-103378000D01*
%TO.N,/PB1*%
X162466000Y-107061000D02*
X153289000Y-107061000D01*
X153289000Y-107061000D02*
X153035000Y-107061000D01*
X153035000Y-107061000D02*
X149352000Y-103378000D01*
%TO.N,/PB2*%
X162466000Y-108331000D02*
X152273000Y-108331000D01*
X152273000Y-108331000D02*
X151765000Y-108331000D01*
X151765000Y-108331000D02*
X146812000Y-103378000D01*
%TO.N,/PB5*%
X169766000Y-109601000D02*
X169037000Y-109601000D01*
X169037000Y-109601000D02*
X167894000Y-108458000D01*
X167894000Y-104140000D02*
X165862000Y-102108000D01*
X167894000Y-108458000D02*
X167894000Y-104140000D01*
X165862000Y-102108000D02*
X145542000Y-102108000D01*
X145542000Y-102108000D02*
X144272000Y-103378000D01*
%TO.N,GND*%
X162814000Y-101346000D02*
X162560000Y-101600000D01*
X162560000Y-101600000D02*
X143510000Y-101600000D01*
X143510000Y-101600000D02*
X141732000Y-103378000D01*
X162814000Y-101346000D02*
X165862000Y-101346000D01*
X167424500Y-99783500D02*
X167424500Y-99060000D01*
X165862000Y-101346000D02*
X167424500Y-99783500D01*
%TO.N,/PB2*%
X183792500Y-103378000D02*
X185824500Y-101346000D01*
X185824500Y-101346000D02*
X197826000Y-101346000D01*
X197826000Y-101346000D02*
X198990000Y-102510000D01*
%TO.N,GND*%
X193040000Y-92210000D02*
X193040000Y-94488000D01*
%TO.N,+5V*%
X170053000Y-96774000D02*
X170689000Y-97410000D01*
X170689000Y-97410000D02*
X172810000Y-97410000D01*
X170053000Y-96774000D02*
X173355000Y-93472000D01*
X173355000Y-93472000D02*
X180697500Y-93472000D01*
X180697500Y-93472000D02*
X181967500Y-94742000D01*
%TO.N,GND*%
X158025000Y-100710000D02*
X159031500Y-100710000D01*
X159411500Y-100330000D02*
X161798000Y-100330000D01*
X159031500Y-100710000D02*
X159411500Y-100330000D01*
X161798000Y-100330000D02*
X162814000Y-101346000D01*
X141885500Y-99467500D02*
X156782500Y-99467500D01*
X138340000Y-100710000D02*
X140643000Y-100710000D01*
X140643000Y-100710000D02*
X141885500Y-99467500D01*
X118655000Y-100710000D02*
X120854750Y-100710000D01*
X120854750Y-100710000D02*
X122097250Y-99467500D01*
X122097250Y-99467500D02*
X137097500Y-99467500D01*
X137097500Y-99467500D02*
X138340000Y-100710000D01*
X98970000Y-100710000D02*
X101220000Y-100710000D01*
X101220000Y-100710000D02*
X102462500Y-99467500D01*
X102462500Y-99467500D02*
X117412500Y-99467500D01*
X117412500Y-99467500D02*
X118655000Y-100710000D01*
%TO.N,+5V*%
X102588500Y-97410000D02*
X113755000Y-97410000D01*
X122146500Y-97410000D02*
X133440000Y-97410000D01*
X163957000Y-109601000D02*
X164338000Y-109220000D01*
X154367500Y-98652500D02*
X160274000Y-98652500D01*
X163072299Y-99826299D02*
X163068000Y-99822000D01*
X94070000Y-97410000D02*
X95312500Y-98652500D01*
X153125000Y-97410000D02*
X154367500Y-98652500D01*
X140462000Y-98652500D02*
X141704500Y-97410000D01*
X162466000Y-109601000D02*
X163957000Y-109601000D01*
X141704500Y-97410000D02*
X153125000Y-97410000D01*
X163892000Y-98652500D02*
X164299500Y-99060000D01*
X163068000Y-99822000D02*
X163830000Y-99060000D01*
X181967500Y-94742000D02*
X181967500Y-99060000D01*
X181967500Y-99060000D02*
X181967500Y-103378000D01*
X164338000Y-99021500D02*
X164299500Y-99060000D01*
X101346000Y-98652500D02*
X102588500Y-97410000D01*
X133440000Y-97410000D02*
X134682500Y-98652500D01*
X163072299Y-100579701D02*
X163072299Y-99826299D01*
X95312500Y-98652500D02*
X101346000Y-98652500D01*
X120904000Y-98652500D02*
X122146500Y-97410000D01*
X134682500Y-98652500D02*
X140462000Y-98652500D01*
X113755000Y-97410000D02*
X114997500Y-98652500D01*
X160274000Y-98652500D02*
X163892000Y-98652500D01*
X163830000Y-99060000D02*
X164299500Y-99060000D01*
X114997500Y-98652500D02*
X120904000Y-98652500D01*
%TO.N,GND*%
X167424500Y-99060000D02*
X167832000Y-99467500D01*
X167424500Y-101638500D02*
X167424500Y-99060000D01*
X169766000Y-103980000D02*
X167424500Y-101638500D01*
X170942000Y-99467500D02*
X176467500Y-99467500D01*
X156782500Y-99467500D02*
X158025000Y-100710000D01*
X165862000Y-99060000D02*
X167424500Y-99060000D01*
X169766000Y-105791000D02*
X169766000Y-103980000D01*
X176467500Y-99467500D02*
X177710000Y-100710000D01*
X167832000Y-99467500D02*
X170942000Y-99467500D01*
%TO.N,Net-(D1-Pad2)*%
X170688000Y-100838000D02*
X172682000Y-100838000D01*
X159638000Y-97410000D02*
X159766000Y-97282000D01*
X158025000Y-97410000D02*
X159638000Y-97410000D01*
X172682000Y-100838000D02*
X172810000Y-100710000D01*
%TO.N,Net-(D1-Pad4)*%
X178308000Y-105918000D02*
X177696500Y-105918000D01*
X177710000Y-97410000D02*
X179324000Y-99024000D01*
X179324000Y-104902000D02*
X178308000Y-105918000D01*
X179324000Y-99024000D02*
X179324000Y-104902000D01*
%TO.N,Net-(D2-Pad2)*%
X151130000Y-100838000D02*
X152997000Y-100838000D01*
X152997000Y-100838000D02*
X153125000Y-100710000D01*
X140080000Y-97410000D02*
X140208000Y-97282000D01*
X138340000Y-97410000D02*
X140080000Y-97410000D01*
%TO.N,Net-(D3-Pad2)*%
X118655000Y-97410000D02*
X120522000Y-97410000D01*
X131572000Y-100584000D02*
X133314000Y-100584000D01*
X133314000Y-100584000D02*
X133440000Y-100710000D01*
X120522000Y-97410000D02*
X120650000Y-97282000D01*
%TO.N,Net-(D4-Pad2)*%
X100710000Y-97410000D02*
X100838000Y-97282000D01*
X113627000Y-100838000D02*
X113755000Y-100710000D01*
X98970000Y-97410000D02*
X100710000Y-97410000D01*
X112014000Y-100838000D02*
X113627000Y-100838000D01*
%TO.N,/PB0*%
X164084000Y-105918000D02*
X166878000Y-105918000D01*
X164084000Y-105918000D02*
X162593000Y-105918000D01*
X175871500Y-105918000D02*
X174498000Y-105918000D01*
X174498000Y-105918000D02*
X172466000Y-105918000D01*
X162593000Y-105918000D02*
X162466000Y-105791000D01*
%TO.N,/PB2*%
X165989000Y-108331000D02*
X162466000Y-108331000D01*
X175918500Y-111252000D02*
X168910000Y-111252000D01*
X168910000Y-111252000D02*
X165989000Y-108331000D01*
X183792500Y-103378000D02*
X175918500Y-111252000D01*
%TO.N,/PB3*%
X182880000Y-96520000D02*
X182880000Y-95654500D01*
X183960500Y-94910000D02*
X187490000Y-94910000D01*
X183792500Y-94742000D02*
X183960500Y-94910000D01*
X183896000Y-97536000D02*
X182880000Y-96520000D01*
X173609000Y-108331000D02*
X174244000Y-107696000D01*
X182880000Y-95654500D02*
X183792500Y-94742000D01*
X169766000Y-108331000D02*
X173609000Y-108331000D01*
%TO.N,/PB4*%
X173101000Y-107061000D02*
X173482000Y-106680000D01*
X183792500Y-99060000D02*
X194440000Y-99060000D01*
X182880000Y-99972500D02*
X183792500Y-99060000D01*
X169766000Y-107061000D02*
X173101000Y-107061000D01*
X182880000Y-100584000D02*
X182880000Y-99972500D01*
X194440000Y-99060000D02*
X198590000Y-94910000D01*
%TD*%
M02*
