%TF.GenerationSoftware,KiCad,Pcbnew,(6.0.9)*%
%TF.CreationDate,2022-11-05T17:57:58+01:00*%
%TF.ProjectId,pcb,7063622e-6b69-4636-9164-5f7063625858,rev?*%
%TF.SameCoordinates,Original*%
%TF.FileFunction,OtherDrawing,Comment*%
%FSLAX46Y46*%
G04 Gerber Fmt 4.6, Leading zero omitted, Abs format (unit mm)*
G04 Created by KiCad (PCBNEW (6.0.9)) date 2022-11-05 17:57:58*
%MOMM*%
%LPD*%
G01*
G04 APERTURE LIST*
%ADD10C,0.162500*%
%ADD11C,0.512514*%
%ADD12C,0.542718*%
%ADD13C,0.723625*%
G04 APERTURE END LIST*
D10*
X81031398Y-82883029D02*
X115049846Y-101929975D01*
X115110466Y-102005686D02*
X145355248Y-145439226D01*
X115110466Y-102005686D02*
X115110466Y-102005686D01*
X165530609Y-144926177D02*
X115110466Y-102005686D01*
X115233740Y-102073135D02*
X186515078Y-139641317D01*
X115233740Y-102073135D02*
X115233740Y-102073135D01*
X204083665Y-129408944D02*
X115233740Y-102073135D01*
X115116903Y-101989425D02*
X206136447Y-116476740D01*
X115116903Y-101989425D02*
X115116903Y-101989425D01*
X206186673Y-103440410D02*
X115116903Y-101989425D01*
X115101996Y-102011542D02*
X203721273Y-88848943D01*
X115101996Y-102011542D02*
X115101996Y-102011542D01*
X175951884Y-82268948D02*
X115101996Y-102011542D01*
D11*
X141327963Y-91578584D02*
X139729162Y-89061991D01*
D12*
X130973592Y-108882618D02*
X141311137Y-91647174D01*
D13*
X137519255Y-89061991D02*
X120575803Y-89061991D01*
X137519255Y-89061991D02*
X137519255Y-89061991D01*
X139023416Y-91647174D02*
X137519255Y-89061991D01*
X139023416Y-91647174D02*
X139023416Y-91647174D01*
X129047524Y-108882618D02*
X139023416Y-91647174D01*
X129047524Y-108882618D02*
X129047524Y-108882618D01*
X117655247Y-89061991D02*
X129047524Y-108882618D01*
D11*
X102617289Y-106703413D02*
X104216091Y-109220005D01*
D12*
X112971658Y-89399374D02*
X102634113Y-106634828D01*
D13*
X106426000Y-109220000D02*
X123369447Y-109220000D01*
X106426000Y-109220000D02*
X106426000Y-109220000D01*
X104921836Y-106634828D02*
X106426000Y-109220000D01*
X104921836Y-106634828D02*
X104921836Y-106634828D01*
X114897721Y-89399374D02*
X104921836Y-106634828D01*
X114897721Y-89399374D02*
X114897721Y-89399374D01*
X126290003Y-109220000D02*
X114897721Y-89399374D01*
M02*
